<svg width="138.9906953" height="140.4748155" version="1.1" viewBox="0 0 46.33023178 46.8249385" xmlns="http://www.w3.org/2000/svg">
 <g transform="translate(10 10) rotate(0 13.16511589 13.41246925)" fill="none" stroke-linecap="round">
  <path d="m0 0m-0.26 6.4c1.99-2.29 3.97-4.58 5.25-6.04m-5.25 6.04c1.08-1.25 2.17-2.5 5.25-6.04m-4.86 11.68c4.08-4.69 8.16-9.38 10.5-12.07m-10.5 12.07c3.59-4.12 7.17-8.24 10.5-12.07m-10.76 18.47c5.54-6.37 11.07-12.73 15.75-18.11m-15.75 18.11c3.4-3.92 6.81-7.83 15.75-18.11m-15.35 23.75c7.42-8.54 14.85-17.09 20.99-24.15m-20.99 24.15c4.2-4.84 8.41-9.68 20.99-24.15m-18.63 27.53c8.41-9.68 16.83-19.36 23.62-27.17m-23.62 27.17c5.71-6.57 11.43-13.14 23.62-27.17m-17.98 26.78c4.38-5.04 8.76-10.08 18.37-21.14m-18.37 21.14c5.94-6.83 11.87-13.66 18.37-21.14m-13.38 21.5c3.17-3.66 6.35-7.31 13.12-15.1m-13.12 15.1c4.16-4.79 8.33-9.58 13.12-15.1m-7.48 14.7c1.55-1.78 3.1-3.56 7.22-8.3m-7.22 8.3c1.77-2.03 3.53-4.06 7.22-8.3m-2.23 8.66c0.67-0.77 1.33-1.53 2.62-3.02m-2.62 3.02c0.86-0.99 1.72-1.98 2.62-3.02m-26.21 2.72m5.65-0.4c-1.43-1.23-2.85-2.47-6.04-5.24m6.04 5.24c-1.31-1.13-2.61-2.26-6.04-5.24m12.43 5.51c-2.6-2.27-5.2-4.53-12.07-10.5m12.07 10.5c-4.69-4.08-9.38-8.16-12.07-10.5m17.72 10.1c-4.08-3.55-8.17-7.1-18.12-15.74m18.12 15.74c-6.71-5.83-13.42-11.67-18.12-15.74m24.51 16c-6.48-5.63-12.96-11.27-24.15-20.99m24.15 20.99c-5.93-5.16-11.87-10.32-24.15-20.99m26.78 17.97c-7.06-6.13-14.12-12.27-27.17-23.62m27.17 23.62c-6.5-5.65-13.01-11.3-27.17-23.62m26.77 17.98c-5.92-5.15-11.85-10.3-21.88-19.03m21.88 19.03c-8.15-7.09-16.31-14.18-21.88-19.03m22.24 14.04c-5.89-5.12-11.79-10.25-15.84-13.77m15.84 13.77c-5.08-4.42-10.17-8.84-15.84-13.77m15.45 8.13c-2.53-2.2-5.05-4.39-9.06-7.87m9.06 7.87c-2.44-2.12-4.87-4.23-9.06-7.87m9.42 2.88c-1.48-1.28-2.96-2.57-3.77-3.28m3.77 3.28c-1.39-1.2-2.77-2.41-3.77-3.28" stroke="#b2f2bb" stroke-width=".5"/>
  <path d="m0 0h26.33m-26.33 0h26.33v26.82m0-26.82v26.82h-26.33m26.33 0h-26.33v-26.82m0 26.82v-26.82" stroke="#2f9e44"/>
 </g>
 <g transform="matrix(1.1340403,0,0,1.1340403,12.402848,11.798713)" fill="#2f9e44">
  <g dominant-baseline="alphabetic" style="white-space:pre" aria-label="plfan">
   <path d="m1.2615308 10.060105q-0.064282 8e-3 -0.096423 8e-3 -0.032141 8e-3 -0.088388-0.04018-0.056247-0.040176-0.0803523-0.072317-0.0241057-0.024106-0.072317-0.080352-0.04821067-0.056208-0.06428113-0.0722785-0.32140911-0.5785364-0.40979661-1.9284547 0-0.064282-0.008035-0.4821136 0-0.4097967 0-0.5142546 0-0.104458 0.008035-0.4339023 0.008035-0.3374796 0.0321409-0.5142546 0.0241057-0.1848102 0.0642818-0.458008 0.04017617-0.2812329 0.10445799-0.5383602 0.12856364-0.3937262 0.36962045-0.6267478 0.2490921-0.2330216 0.6508535-0.3937262 0.1687398-0.048211 0.2731977-0.048211 0.056247 0 0.2651625 0.032141 0.9481569 0.249092 1.3418831 0.8356637 0.5142546 0.4981841 0.4097966 1.518658-0.1205284 0.3776553-0.5705012 0.6347826-0.4419375 0.2490921-0.8517341 0.2249864-0.3696205 0.0883875-0.7071001-0.1205284-0.3294443-0.2169512-0.6669239-0.5865717h-0.032141q0 0.072317-0.01607 0.6187126-0.00804 0.5383602-0.00804 0.8035228-0.064282 0.8597693 0.4097966 1.6713273 0.080352 0.1526694 0 0.3615853-0.1607001 0.1848099-0.2571228 0.2008809zm1.3097421-3.6078175q0.4821137 0 0.6267478-0.35355 0.176775-0.5946069-0.4097967-1.165108-0.176775-0.1687398-0.4178318-0.2249864-0.2330216-0.0642818-0.6428182-0.0160705-0.385691 0.1848103-0.4821137 0.7954876 0.0080352 0.2571273 0.3455148 0.5142546 0.3214091 0.2410568 0.5865716 0.3615852 0.1928455 0.088387 0.3937262 0.0883875z"/>
   <path d="m5.3595024 7.2397398q-0.1848102 0-0.2892682-0.064282-0.1124932-0.1205282-0.1848102-0.2571271-0.0642818-0.1365988-0.0964228-0.3214091-0.0321409-0.1848102-0.0401761-0.281233-0.00804-0.1044579-0.01607-0.35355 0-0.249092 0-0.3053386 0.00804-0.4740785 0.056247-1.2776013 0.048211-0.811558 0.064282-1.1570728-0.00804-0.4097966 0.040176-1.237425 0.048211-0.8356637 0.024106-1.32581261 0.064282-0.20891592 0.2410568-0.20891592 0.2249864 0 0.3696205 0.25712729 0 0.0160704 0.032141 0.0803523 0.032141 0.0642818 0.040176 0.11249319l0.032141 0.57853635q0.00804 0.088388 0.00804 0.1928455-0.024106 0.4981841-0.080352 1.2454603-0.056247 0.7472762-0.088388 1.3499183-0.032141 0.602642-0.032141 1.1892137 0.00804 0.1446341 0.024106 0.425867 0.01607 0.281233 0.024106 0.4178319 0.01607 0.1285636 0.056247 0.3214091 0.048211 0.1928455 0.1365988 0.35355 0.00804 0.1124932-0.056247 0.2008807-0.1044579 0.064282-0.2651625 0.064282z"/>
   <path d="m7.5531229 7.1674228q-0.0803523-0.0160705-0.1446341-0.0562466-0.0642819-0.0321409-0.104458-0.0642818-0.0321409-0.0321409-0.072317-0.104458-0.032141-0.0803523-0.0482114-0.1205284-0.0080352-0.0401761-0.0401761-0.1446341-0.032141-0.1124932-0.0482114-0.1607046-0.1526693-0.5463955-0.1526693-1.5749046-0.0642819-0.0883875-0.1526694-0.1526693-0.7231705-0.176775-0.6588886-0.562466-0.0241057-0.1607045 0.0482113-0.2892682 0.0723171-0.1285636 0.2169512-0.1205284 0.080352-0.00804 0.2249863 0.040176 0.1446341 0.040176 0.2410569 0.00804l-0.0160705-0.8678092q-0.0160704-0.3133739 0.1928455-0.9722626 0.072317-0.3455148 0.4740784-0.8035228 0.1607046-0.1687397 0.5142546-0.32944431 0.0642818-0.03214091 0.2330216-0.04821136 0.1687398-0.01607046 0.2330216-0.04017614l0.6508535 0.0241057q0.3214091 0.0964227 0.4097966 0.15266933 0.072317 0.0321409 0.1124932 0.0803523 0.048211 0.040176 0.1124932 0.1365989 0.064282 0.096423 0.080352 0.1205284 0 0.040176 0.024106 0.1607045 0.032141 0.1124932 0.01607 0.1848103-0.01607 0.072317-0.1124932 0.088387-0.120528 0.1365993-0.3696201 0.00804-0.0562466-0.01607482-0.176775-0.09642702-0.1124932-0.0883875-0.1365989-0.1285637-0.2169511-0.0080352-0.5222898 0.0241057-0.00804 0-0.1044579 0.032141-0.096423 0.024106-0.1285637 0.01607-0.2892682-0.088387-0.5062193 0.3776557-0.2169512 0.458008-0.3294444 1.0927909-0.072317 0.5865717 0.040176 0.9963683l0.1044579 0.056247q0.2973035 0.080352 0.7954876 0.1607045 0.5062193 0.080352 0.7633466 0.1446341 0.4981841 0.1607046 0.7071001 0.3535501 0.032141 0.1205284-0.048211 0.2330216-0.072317 0.1124932-0.2089159 0.1205284-0.1285637 0.032141-0.2973035 0.032141-0.2169511 0-0.4901488-0.088388-0.2731978-0.088387-0.3615853-0.096423-0.281233-0.056247-0.4660432-0.056247-0.2008807 0-0.3937262 0.056247v0.064282l-0.00804 0.176775v0.064282q-0.032141 0.3294444 0.080352 0.8436989 0.1205284 0.5142546 0.1285636 0.739241 0 0.056247-0.056247 0.1124932-0.056247 0.048211-0.1446341 0.1044579-0.080352 0.056247-0.1044579 0.072317z"/>
   <path d="m11.683227 7.1352819q-0.249092 0.032141-0.514254-0.064282-0.265163-0.104458-0.417832-0.2892682-0.07232-0.1124932-0.104458-0.1526694-0.02411-0.048211-0.08035-0.1446341-0.05625-0.1044579-0.08035-0.1687398-0.01607-0.064282-0.04018-0.1526693-0.02411-0.088388-0.02411-0.1687398 0-0.088388 0.02411-0.176775 8e-3 -0.2731977 0.176775-0.5544307 0.176775-0.281233 0.35355-0.4499728 0.176775-0.1687397 0.458008-0.4017613 0.05625-0.040176 0.08035-0.064282 0.33748-0.2731977 0.916016-0.2731977 0.120529 0 0.763347 0.064282 0.01607 0.01607 0.104458 0.056247 0.09642 0.040176 0.136599 0.088388 0.04018 0.040176 8e-3 0.1124932l0.104458 0.104458q0.176775 0.1044579 0.224986 0.2008807 0.07232 0.1205284 0.265163 0.7553114 0.01607 0.064282 0.152669 0.4339023 0.144634 0.3696204 0.160705 0.4419375 0.200881 0.3696205 0.208916 0.4901489l0.04018 0.1285636q-8e-3 0.040176-0.07232 0.088387-0.06428 0.048211-0.07232 0.056247-0.136599 0.048211-0.417832-0.048211-0.05625-0.024106-0.104458-0.056247-0.04018-0.040176-0.06428-0.064282-0.01607-0.032141-0.07232-0.1124932-0.04821-0.080352-0.07232-0.1205285l-0.03214-0.040176q-0.088346-0.2089164-0.273157-0.7392414-0.321409 0.5463954-0.779417 0.8919102-0.458008 0.3374796-0.956192 0.3294444zm-0.04018-0.7472762q0.136599 0 0.377656-0.064282 0.393726-0.1446341 0.715135-0.5062194 0.313374-0.4339023 0.35355-0.7633466 0-0.024106 0.03214-0.1848103 0.03214-0.1687397 0.02411-0.2330216-0.160705 0.040176-0.466044 0.064282-0.297303 0.01607-0.458008 0.048211-0.208915 0.032141-0.425867 0.2008807-0.216951 0.1607046-0.329444 0.3053387t-0.305339 0.4097966q-0.136598 0.1687398 0.04821 0.5062193 0.144634 0.2169512 0.433902 0.2169512z"/>
   <path d="m18.248011 7.103141q-0.08035 0-0.09642-0.080352-0.01607-0.024106-0.112493-0.176775-0.08839-0.1607046-0.144634-0.2249864-0.152669-0.530325-0.200881-1.0204739-0.02411-0.056247-0.07232-0.2410569-0.04018-0.1928454-0.08035-0.2651625-0.01607-0.064282-0.09642-0.1365989-0.07232-0.080352-0.120528-0.080352-0.06428 0-0.08839 0.01607-0.530325 0.4499728-0.964227 1.1168967-0.01607 0.032141-0.208916 0.35355-0.18481 0.3133739-0.249092 0.458008-0.08839 0.1446341-0.257127 0.104458l-0.353553-0.3615854v-0.2490921q0.04018-0.2089159 0.08839-0.811558 0.04821-0.602642 0.06428-0.7151352 0-0.040176-0.04018-0.281233-8e-3 -0.032141-8e-3 -0.104458 0-0.1285636 0.08035-0.2089159 0.08839-0.080352 0.216951-0.072317 0.257127 0 0.361585 0.1607045 0.05625 0.2169512 0.05625 0.562466 0 0.1124931-0.01607 0.2731977t-0.01607 0.1687398q0.04018-0.032141 0.152669-0.1687398 0.112494-0.1446341 0.233022-0.2973034 0.120528-0.1526694 0.144634-0.1848103 0.04821-0.056247 0.136599-0.1848102 0.09642-0.1285636 0.16874-0.2089159 0.08035-0.080352 0.192845-0.1687398 0.16874-0.1365989 0.449973-0.1526693 0.08839-0.032141 0.176775 0.01607 0.09642 0.040176 0.200881 0.176775 0.104458 0.1285637 0.128563 0.176775 0.03214 0.048211 0.128564 0.2008807 0.249092 0.5785364 0.249092 1.2615308l0.152669 0.6588887q0 0.024106 0.04821 0.1607045 0.05625 0.1365989 0.05625 0.1446341 0.01607 0.2169512-0.104458 0.3053387-0.0241 0.00804-0.120528 0.048211-0.08839 0.032141-0.136599 0.032141z"/>
  </g>
  <g dominant-baseline="alphabetic" style="white-space:pre" aria-label=" zen">
   <path d="m3.744413 17.315915q-0.2571273-0.04018-0.2571273-0.449973-0.00804-0.08035 0.00804-0.120528 0.016071-0.04821 0.064282-0.120528 0.048211-0.07232 0.080352-0.136599 0.3133739-0.257128 0.8517342-0.803523 0.5463955-0.554431 0.8035228-0.779417l0.1848102-0.200881q0.2169511-0.18481 0.2169511-0.265162-0.080352-0.08035-0.9079807 0.152669-0.072317 0.01607-0.3214091 0.08035-0.2410568 0.05625-0.3937262 0.08035-0.1526693 0.02411-0.2812329 0.01607-0.3053387-0.16874-0.2490921-0.441938 0.040176-0.192845 0.1446341-0.297303 0.040176-0.02411 0.080352-0.02411 0.040176-8e-3 0.088388 0 0.056247 8e-3 0.080352 8e-3l0.3374795 8e-3q0.3455148-0.08839 0.7312058-0.144634 0.3856909-0.05625 0.8597693-0.104458 0.4821137-0.04821 0.739241-0.08839 0.249092 0.05625 0.3294443 0.345515l0.00804 0.01607q-0.032141 0.233021-0.2892682 0.546395-0.1526694 0.112493-0.385691 0.321409-0.2249864 0.200881-0.5062193 0.466043-0.281233 0.265163-0.4017614 0.369621-0.080352 0.07232-0.2330216 0.192845-0.1526694 0.120529-0.2892682 0.233022-0.1365989 0.112493-0.2651625 0.233021-0.040176 0.04821-0.064282 0.08839-0.01607 0.04018-0.01607 0.05625 0.00804 0.01607 0.01607 0.01607 0.1848103 0 0.3776557-0.04821 0.1928455-0.04821 0.4258671-0.128564 0.2410568-0.08839 0.3856909-0.120528 0.9240512-0.249092 1.4383058-0.241057 0.01607 8e-3 0.1526693 0.04018 0.1446341 0.02411 0.2330217 0.06428 0.088387 0.04018 0.1044579 0.112493 0.032141 0.08839-0.1446341 0.33748-0.1124932 0.04821-0.4017614 0.08839-0.2812329 0.04018-0.3856909 0.08035h-0.024106q-0.024106 8e-3 -0.040176 8e-3l-0.2410569 0.03214q-0.024106 0-0.048211 8e-3h-0.024115l-1.8400672 0.506365q-0.064282 0-0.2571273 0.01607-0.1928454 0.01607-0.2651625 0.01607-0.072317 0-0.2089159-0.02411z"/>
   <path d="m8.1316513 16.424005q-0.104458-0.425867 0.040176-0.835664 0.1526694-0.417832 0.4660432-0.89191 0.5062194-0.658889 1.1249319-0.859769l0.1285637-0.02411q0.1848099-0.03214 0.2892679-0.02411 0.449973 0.01607 0.779417 0.273198 0.329445 0.257127 0.35355 0.699065 8e-3 0.425867-0.321409 0.787452-0.329444 0.361585-0.72317 0.393726-0.144634 0.05625-0.3133741 0.05625-0.4097966 0-0.8517342-0.233022l-0.2410567-0.120523q-0.1044579 0.208916-0.1044579 0.321409 0.088387 0.449973 0.4821136 0.763347 0.4017614 0.305338 0.8597693 0.273197 0.273198 0.03214 0.731206-0.112493l0.233021-0.06428q0.241057-0.09642 0.666924-0.128563 0.192846-0.02411 0.216951 0.152669v0.273198q-0.273197 0.297303-0.650853 0.321409l-0.200881 0.05625q-0.650853 0.184811-0.956192 0.16874-0.642818 0.04017-1.1811783-0.297309-0.5544307-0.289268-0.8276284-0.948157zm1.0044035-1.22939q0.1928454 0.06428 0.2330216 0.06428 0.064282 0.03214 0.1285636 0.05625 0.064282 0.02411 0.1446341 0.03214 0.088387 8e-3 0.1285637 8e-3 0.040176 0 0.1526693 0 0.1205279 0 0.1365989 0 0.176775-0.03214 0.361585-0.176775 0.192846-0.15267 0.224987-0.313374 0.07232-0.249092-0.377656-0.393726l-0.144634-0.04821q-0.1607048 0-0.345515 0.112493-0.176775 0.112494-0.2571273 0.192846-0.080352 0.07232-0.2651625 0.265162l-0.088387 0.144635z"/>
   <path d="m15.628524 17.147175q-0.08035 0-0.09642-0.08035-0.01607-0.02411-0.112494-0.176775-0.08839-0.160704-0.144634-0.224986-0.152669-0.530325-0.20088-1.020474-0.02411-0.05625-0.07232-0.241057-0.04018-0.192845-0.08035-0.265162-0.01607-0.06428-0.09642-0.136599-0.07232-0.08035-0.120529-0.08035-0.06428 0-0.08839 0.01607-0.530325 0.449973-0.964228 1.116896-0.01607 0.03214-0.208916 0.35355-0.18481 0.313374-0.249092 0.458008-0.08839 0.144635-0.257127 0.104458l-0.35355-0.361585v-0.249092q0.04018-0.208916 0.08839-0.811558t0.06428-0.715135q0-0.04018-0.04018-0.281233-8e-3 -0.03214-8e-3 -0.104458 0-0.128564 0.08035-0.208916 0.08839-0.08035 0.216951-0.07232 0.257128 0 0.361586 0.160704 0.05625 0.216952 0.05625 0.562466 0 0.112494-0.01607 0.273198-0.01607 0.160705-0.01607 0.16874 0.04018-0.03214 0.15267-0.16874 0.112493-0.144634 0.233021-0.297303 0.120529-0.15267 0.144634-0.18481 0.04821-0.05625 0.136599-0.184811 0.09642-0.128563 0.16874-0.208916 0.08035-0.08035 0.192845-0.168739 0.16874-0.136599 0.449973-0.15267 0.08839-0.03214 0.176775 0.01607 0.09642 0.04018 0.200881 0.176775 0.104458 0.128563 0.128564 0.176775 0.03214 0.04821 0.128563 0.20088 0.249092 0.578537 0.249092 1.261531l0.15267 0.658889q0 0.02411 0.04821 0.160704 0.05625 0.136599 0.05625 0.144635 0.01607 0.216951-0.104458 0.305338-0.02411 8e-3 -0.120529 0.04821-0.08839 0.03214-0.136599 0.03214z"/>
  </g>
 </g>
</svg>
